<svg width="102" height="66" viewBox="0 0 102 66" fill="none" xmlns="http://www.w3.org/2000/svg">
<g opacity="0.19">
<rect width="96.3779" height="49.5603" rx="24.7801" transform="matrix(-1 0 0 1 101.38 0)" fill="white"/>
<path d="M7.30533 55.7284L25.9419 49.4688L13.2887 32.9801L7.30533 55.7284Z" fill="white"/>
<ellipse cx="3.13228" cy="3.88123" rx="3.13228" ry="3.88123" transform="matrix(-1 0 0 1 76.8033 20.8989)" fill="black"/>
<ellipse cx="3.13228" cy="3.88123" rx="3.13228" ry="3.88123" transform="matrix(-1 0 0 1 68.1293 20.8989)" fill="black"/>
<ellipse cx="3.13228" cy="3.88123" rx="3.13228" ry="3.88123" transform="matrix(-1 0 0 1 59.4554 20.8989)" fill="black"/>
<ellipse cx="3.13228" cy="3.88123" rx="3.13228" ry="3.88123" transform="matrix(-1 0 0 1 50.7814 20.8989)" fill="black"/>
<ellipse cx="3.13228" cy="3.88123" rx="3.13228" ry="3.88123" transform="matrix(-1 0 0 1 42.1073 20.8989)" fill="black"/>
</g>
</svg>
