<svg width="48" height="48" viewBox="0 0 48 48" fill="none" xmlns="http://www.w3.org/2000/svg">
<rect x="0.0633545" y="0.158691" width="47.6156" height="47.6156" rx="4" fill="#FF5900"/>
<path d="M41.0243 18.5169C40.9211 18.2129 40.7312 17.9458 40.4779 17.7486C40.2246 17.5513 39.9191 17.4325 39.5991 17.4069L30.2386 16.6631L26.188 7.69664C26.059 7.40785 25.8491 7.16256 25.5838 6.99038C25.3185 6.8182 25.009 6.72649 24.6927 6.72632C24.3764 6.72615 24.0668 6.81752 23.8013 6.9894C23.5358 7.16129 23.3257 7.40635 23.1964 7.695L19.1458 16.6631L9.7852 17.4069C9.4707 17.4319 9.17003 17.5468 8.91918 17.7382C8.66832 17.9295 8.47789 18.189 8.37068 18.4857C8.26346 18.7824 8.24399 19.1037 8.31461 19.4112C8.38522 19.7187 8.54292 19.9993 8.76885 20.2195L15.6862 26.9629L13.2398 37.5565C13.1655 37.8772 13.1893 38.2128 13.3081 38.5198C13.4269 38.8267 13.6353 39.0909 13.9061 39.278C14.1769 39.4651 14.4977 39.5665 14.8268 39.569C15.156 39.5715 15.4783 39.475 15.7519 39.2921L24.6922 33.3319L33.6324 39.2921C33.9121 39.4777 34.2419 39.5733 34.5775 39.566C34.9132 39.5586 35.2385 39.4487 35.5098 39.2509C35.781 39.0531 35.9852 38.777 36.0949 38.4597C36.2046 38.1424 36.2144 37.7992 36.1232 37.4761L33.1201 26.9678L40.5679 20.2655C41.0555 19.8255 41.2345 19.1392 41.0243 18.5169Z" fill="white"/>
</svg>
